<svg width="33" height="32" viewBox="0 0 33 32" fill="none" xmlns="http://www.w3.org/2000/svg">
<circle cx="16.175" cy="16.0005" r="15" fill="white" stroke="#F1C40F" stroke-width="2"/>
<circle cx="16.175" cy="16.0005" r="10.5" fill="#F1C40F" stroke="#F1C40F" stroke-width="3"/>
<path d="M16.5197 10.0899C17.3238 10.0899 18.0103 10.2157 18.5792 10.4673C19.1481 10.7135 19.5748 11.0472 19.8592 11.4684C20.1491 11.8841 20.2941 12.3408 20.2941 12.8386C20.2941 13.2817 20.2148 13.6619 20.0561 13.9791C19.8975 14.2964 19.7033 14.5562 19.4736 14.7586C19.2493 14.961 18.9539 15.188 18.5874 15.4396C18.2866 15.642 18.0459 15.8171 17.8654 15.9648C17.6903 16.1125 17.5426 16.2902 17.4223 16.4981C17.3074 16.706 17.25 16.9494 17.25 17.2284V17.5648H14.8787V17.1463C14.8787 16.6321 14.9608 16.1973 15.1249 15.8417C15.2944 15.4861 15.4941 15.2017 15.7238 14.9884C15.9536 14.775 16.2462 14.5453 16.6018 14.2991C16.837 14.135 17.0175 14.001 17.1433 13.8971C17.2746 13.7932 17.3813 13.6728 17.4633 13.5361C17.5508 13.3938 17.5946 13.2352 17.5946 13.0602C17.5946 12.7702 17.4743 12.5432 17.2336 12.3791C16.9929 12.215 16.6756 12.133 16.2818 12.133C15.9043 12.133 15.5378 12.2178 15.1823 12.3873C14.8322 12.5514 14.5122 12.8003 14.2223 13.134L12.5813 11.854C13.5823 10.6779 14.8951 10.0899 16.5197 10.0899ZM16.0931 19.0581C16.3611 19.0581 16.6072 19.1265 16.8315 19.2632C17.0613 19.3945 17.2418 19.575 17.3731 19.8048C17.5098 20.029 17.5782 20.2752 17.5782 20.5432C17.5782 20.8113 17.5098 21.0602 17.3731 21.2899C17.2418 21.5142 17.0613 21.692 16.8315 21.8232C16.6072 21.96 16.3611 22.0284 16.0931 22.0284C15.8196 22.0284 15.5707 21.96 15.3464 21.8232C15.1221 21.692 14.9443 21.5142 14.8131 21.2899C14.6818 21.0602 14.6161 20.8113 14.6161 20.5432C14.6161 20.2752 14.6818 20.029 14.8131 19.8048C14.9443 19.575 15.1221 19.3945 15.3464 19.2632C15.5707 19.1265 15.8196 19.0581 16.0931 19.0581Z" fill="white"/>
</svg>
