<svg width="274" height="274" viewBox="0 0 274 274" fill="none" xmlns="http://www.w3.org/2000/svg">
<ellipse cx="134.454" cy="136.969" rx="134.226" ry="136.356" fill="#3498DB"/>
<ellipse cx="134.454" cy="130.733" rx="125.26" ry="102.991" fill="white"/>
<path d="M58.185 117.768C54.1026 114.048 53.8085 107.724 57.5281 103.641L59.4509 101.531C63.1705 97.4485 69.4953 97.1544 73.5778 100.874L90.2947 116.105C94.3771 119.825 94.6712 126.15 90.9516 130.232L89.0288 132.343C85.3092 136.425 78.9844 136.719 74.902 133L58.185 117.768Z" fill="#2D3436"/>
<path d="M72.3397 146.765C68.0477 150.24 61.7507 149.578 58.2751 145.286L56.4784 143.068C53.0028 138.776 53.6646 132.479 57.9567 129.003L75.5321 114.771C79.8242 111.295 86.1211 111.957 89.5968 116.249L91.3934 118.468C94.869 122.76 94.2072 129.057 89.9151 132.532L72.3397 146.765Z" fill="#2D3436"/>
<path d="M168.954 98.4266C168.954 89.5901 176.117 82.4266 184.954 82.4266H186.938C195.774 82.4266 202.938 89.5901 202.938 98.4266V132.994C202.938 141.83 195.774 148.994 186.938 148.994H184.954C176.117 148.994 168.954 141.83 168.954 132.994V98.4266Z" fill="#2D3436"/>
<path fill-rule="evenodd" clip-rule="evenodd" d="M229.836 154.8C238.798 144.888 243.706 132.32 243.684 119.336C243.684 88.9653 217.379 64.3472 184.928 64.3472C152.476 64.3472 126.171 88.9653 126.171 119.336C126.171 149.707 152.476 174.325 184.928 174.325C199.368 174.325 212.588 169.452 222.821 161.365L221.086 170.704L255.047 202.488L273.777 184.959L239.815 153.175L229.836 154.8ZM184.928 161.635C209.89 161.635 230.125 142.698 230.125 119.336C230.125 95.9743 209.89 77.0369 184.928 77.0369C159.965 77.0369 139.73 95.9743 139.73 119.336C139.73 142.698 159.965 161.635 184.928 161.635Z" fill="#2D3436"/>
</svg>
